<svg width="16" height="18" viewBox="0 0 16 18" fill="none" xmlns="http://www.w3.org/2000/svg">
<path d="M0.0748291 0L1.51741 16.1952L7.99042 18L14.4815 16.1886L15.9252 0H0.0748291ZM12.9283 3.71038L12.4481 9.10552L12.4496 9.13464L12.4476 9.20165V9.20107L12.1064 12.9734L12.0688 13.3086L8.00003 14.4339L7.99688 14.4368L3.93514 13.3051L3.66011 10.1863H5.65188L5.7932 11.7722L8.00061 12.3704L8.00003 12.3716V12.3713L10.2156 11.7646L10.4498 9.18199H5.81816L5.77842 8.74541L5.68789 7.72263L5.64041 7.17343H10.6258L10.8071 5.16487H3.21392L3.17418 4.72858L3.0838 3.70551L3.03616 3.15631H12.9758L12.9283 3.71038Z" fill="#3996DB"/>
</svg>
