<svg width="20" height="20" viewBox="0 0 20 20" fill="none" xmlns="http://www.w3.org/2000/svg">
<path fill-rule="evenodd" clip-rule="evenodd" d="M9.99992 0.490845C4.61589 0.490845 0.25 4.85577 0.25 10.2408C0.25 14.5487 3.04365 18.2032 6.91759 19.4926C7.4047 19.583 7.58359 19.2811 7.58359 19.0236C7.58359 18.7911 7.57455 18.023 7.57035 17.2083C4.85791 17.7981 4.28556 16.058 4.28556 16.058C3.84204 14.931 3.203 14.6314 3.203 14.6314C2.31823 14.0262 3.26969 14.0388 3.26969 14.0388C4.24858 14.1074 4.76427 15.0436 4.76427 15.0436C5.63387 16.5338 7.04514 16.103 7.60151 15.8541C7.68902 15.2239 7.9417 14.7936 8.22053 14.5501C6.05494 14.3039 3.77827 13.4678 3.77827 9.73186C3.77827 8.66739 4.1593 7.79763 4.783 7.11468C4.68161 6.86927 4.34788 5.87762 4.87729 4.53464C4.87729 4.53464 5.69586 4.2726 7.55905 5.53404C8.33694 5.31785 9.17117 5.20919 9.99992 5.20548C10.8282 5.20919 11.6629 5.31753 12.4422 5.53372C14.3032 4.27227 15.1208 4.53431 15.1208 4.53431C15.6515 5.87713 15.3177 6.86895 15.2165 7.11436C15.8417 7.79731 16.22 8.66707 16.22 9.73154C16.22 13.4763 13.9391 14.3007 11.768 14.5422C12.1179 14.8448 12.4295 15.4383 12.4295 16.3478C12.4295 17.6523 12.4182 18.7023 12.4182 19.0234C12.4182 19.2829 12.5938 19.5869 13.0879 19.4911C16.9596 18.2005 19.75 14.5471 19.75 10.2408C19.7498 4.85609 15.3844 0.490845 9.99992 0.490845Z" fill="#C0C4CE"/>
<path d="M3.94279 14.4894C3.92132 14.5379 3.84511 14.5524 3.77568 14.5193C3.70464 14.4877 3.66509 14.4216 3.68801 14.373C3.709 14.323 3.78537 14.3093 3.85593 14.3427C3.92697 14.3745 3.96749 14.441 3.94279 14.4894ZM4.33771 14.9301C4.29137 14.9732 4.20047 14.9531 4.1388 14.8848C4.07486 14.817 4.06291 14.7261 4.11022 14.6824C4.15833 14.6394 4.24649 14.6598 4.31042 14.7276C4.37403 14.7964 4.38647 14.8863 4.33771 14.9301ZM4.72229 15.4914C4.66255 15.5331 4.56471 15.4942 4.50433 15.4075C4.44459 15.3206 4.44459 15.2165 4.50594 15.175C4.56617 15.1333 4.66255 15.1709 4.72391 15.2568C4.78332 15.3448 4.78332 15.4491 4.72229 15.4914ZM5.2488 16.0341C5.19552 16.093 5.08153 16.0772 4.99822 15.9969C4.91313 15.9183 4.8894 15.8064 4.94284 15.7477C4.99709 15.6886 5.11156 15.705 5.19535 15.7848C5.28044 15.8633 5.30579 15.9755 5.2488 16.0341ZM5.97534 16.3491C5.95161 16.4254 5.84214 16.4602 5.73154 16.4275C5.62127 16.3941 5.5491 16.3048 5.57171 16.2277C5.59431 16.1506 5.70458 16.1146 5.81582 16.1494C5.9261 16.1826 5.99827 16.2714 5.97534 16.3491ZM6.77341 16.4074C6.77616 16.4878 6.68251 16.5543 6.56675 16.5559C6.45002 16.5586 6.35557 16.4934 6.35444 16.4143C6.35444 16.3331 6.44614 16.2674 6.56271 16.2651C6.67848 16.263 6.77341 16.3278 6.77341 16.4074ZM7.51578 16.2811C7.52966 16.3594 7.4491 16.44 7.33398 16.4614C7.22096 16.4824 7.11602 16.4337 7.10149 16.356C7.0876 16.2756 7.16962 16.195 7.28264 16.1742C7.39792 16.1544 7.50125 16.2015 7.51578 16.2811Z" fill="#C0C4CE"/>
</svg>
