<svg width="20" height="14" viewBox="0 0 20 14" fill="none" xmlns="http://www.w3.org/2000/svg">
<path d="M0.250244 11.31L2.51387 9.96246C2.95052 10.7244 3.34806 11.3688 4.30101 11.3688C5.21414 11.3688 5.79018 11.019 5.79018 9.64971V0.351133H8.5701V9.68819C8.5701 12.5204 6.88252 13.8099 4.42049 13.8099C3.55009 13.8563 2.68584 13.6422 1.94155 13.1958C1.19727 12.7494 0.607149 12.0924 0.250244 11.31ZM10.0806 11.0162L12.3442 9.72667C12.5959 10.229 12.9866 10.6513 13.4713 10.945C13.956 11.2387 14.5151 11.3919 15.0843 11.387C16.2364 11.387 16.9703 10.8203 16.9703 10.0387C16.9703 9.10117 16.2158 8.76883 14.9449 8.21959L14.2523 7.92993C12.2468 7.09033 10.9162 6.03523 10.9162 3.80819C10.9162 1.75677 12.5049 0.194408 14.9869 0.194408C15.7911 0.137062 16.5947 0.313963 17.2973 0.703043C18 1.09212 18.5706 1.67615 18.9381 2.38227L16.7733 3.75012C16.6313 3.3996 16.3843 3.09983 16.0651 2.89054C15.746 2.68125 15.3697 2.57232 14.9862 2.57817C14.819 2.56153 14.6501 2.57937 14.4903 2.63054C14.3305 2.68172 14.1833 2.7651 14.0581 2.87538C13.9329 2.98565 13.8325 3.12039 13.7632 3.27101C13.6939 3.42162 13.6572 3.5848 13.6556 3.75012C13.6556 4.57083 14.1719 4.90247 15.3624 5.41043L16.0572 5.70359C18.4204 6.69991 19.7502 7.71583 19.7502 10.0009C19.7502 12.4624 17.7846 13.8106 15.1441 13.8106C12.5625 13.8106 10.8949 12.5988 10.0806 11.0162Z" fill="#EABD5F"/>
</svg>
