<svg width="18" height="20" viewBox="0 0 18 20" fill="none" xmlns="http://www.w3.org/2000/svg">
<path d="M16.9457 4.57077L9.83438 0.441583C9.3859 0.186139 8.80196 0.186139 8.34993 0.441583L1.16267 4.57077C0.699844 4.83702 0.372314 5.33743 0.372314 5.87267V14.1201C0.372314 14.6553 0.708391 15.1559 1.17122 15.4236L3.07012 16.5021C3.97772 16.9492 4.29847 16.9492 4.71147 16.9492C6.05529 16.9492 6.82291 16.1365 6.82291 14.7192V6.57691C6.82291 6.46193 6.76308 6.29083 6.6502 6.29083H5.74341C5.62858 6.29083 5.37153 6.46193 5.37153 6.57675V14.719C5.37153 15.3473 4.80323 15.9725 3.74114 15.4415L1.77903 14.3105C1.71065 14.2734 1.66243 14.1988 1.66243 14.1201V5.87267C1.66243 5.79494 1.75194 5.71688 1.8208 5.67705L8.98483 1.55496C9.05176 1.51706 9.15013 1.51706 9.21689 1.55496L16.2935 5.67608C16.3613 5.71688 16.3374 5.79252 16.3374 5.87267V14.1201C16.3374 14.1988 16.3669 14.2754 16.3 14.3133L9.19044 18.4378C9.12949 18.4744 9.05385 18.4744 8.98709 18.4378L7.16367 17.3494C7.10867 17.3175 7.04336 17.306 6.99063 17.3355C6.48329 17.6231 6.38976 17.6613 5.91386 17.8263C5.79678 17.8671 5.62407 17.9379 5.97998 18.1374L8.36638 19.5491C8.59421 19.6807 8.85267 19.75 9.11578 19.75C9.38058 19.75 9.63989 19.6813 9.8684 19.5491L16.9455 15.4236C17.4083 15.1539 17.6277 14.6553 17.6277 14.1201V5.87267C17.6277 5.33743 17.4083 4.83831 16.9457 4.57077ZM11.3238 12.8132C9.43283 12.8132 9.01628 12.2915 8.87743 11.3512C8.8613 11.2499 8.77535 11.1288 8.6723 11.1288H7.74809C7.63375 11.1288 7.54183 11.2675 7.54183 11.3813C7.54183 12.5853 8.19641 14.0441 11.324 14.0441C13.588 14.0441 14.886 13.1644 14.886 11.6076C14.886 10.0639 13.8431 9.65884 11.6475 9.36824C9.42815 9.0749 9.2027 8.9267 9.2027 8.40678C9.2027 7.97814 9.39364 7.40646 11.0369 7.40646C12.5052 7.40646 13.0465 7.72157 13.2692 8.71125C13.2882 8.8043 13.3732 8.87106 13.4691 8.87106H14.397C14.4541 8.87106 14.5086 8.848 14.5486 8.8072C14.5873 8.76334 14.6078 8.70835 14.6027 8.64933C14.459 6.94508 13.3267 6.15085 11.0368 6.15085C8.99983 6.15085 7.7847 7.01103 7.7847 8.4529C7.7847 10.0169 8.9937 10.449 10.949 10.6424C13.2882 10.8717 13.4701 11.2136 13.4701 11.6737C13.4701 12.4728 12.8286 12.8132 11.3238 12.8132Z" fill="#82BC4F"/>
</svg>
