<svg width="20" height="18" viewBox="0 0 20 18" fill="none" xmlns="http://www.w3.org/2000/svg">
<path d="M10.5611 15.9433C10.3877 15.7901 10.2069 15.6363 10.0341 15.4659C9.89604 15.5936 9.76662 15.7132 9.62969 15.8322C7.92006 17.306 6.15785 17.9196 5.11324 17.3231C4.10271 16.7523 3.78436 15.066 4.1888 12.9445C4.23194 12.7145 4.28375 12.4846 4.34422 12.2546C4.1628 12.2012 3.99005 12.1521 3.81729 12.0944C1.66624 11.3602 0.250122 10.1678 0.250122 8.97492C0.250122 7.82527 1.57149 6.70926 3.63529 5.99373C3.8664 5.91684 4.11022 5.84048 4.36098 5.77213C4.3032 5.55053 4.25756 5.33747 4.21422 5.13136C3.78205 2.97783 4.08422 1.25736 5.10341 0.677998C6.16536 0.0644599 7.92757 0.720717 9.69729 2.26231C9.80071 2.35575 9.90471 2.45827 10.0168 2.56026C10.1809 2.40701 10.3363 2.25376 10.5004 2.1176C12.1759 0.675862 13.8422 0.0730035 14.8614 0.652368C15.9234 1.24829 16.2348 3.08837 15.7599 5.3631C15.7339 5.50835 15.7021 5.64451 15.6651 5.79029C15.8812 5.85009 16.0967 5.91791 16.2955 5.98625C18.4026 6.70178 19.7673 7.81779 19.75 8.99308C19.75 10.194 18.2905 11.3783 16.0522 12.111C15.9315 12.1451 15.8107 12.1879 15.6894 12.2215C15.7414 12.3918 15.7755 12.5622 15.8101 12.7325C16.2591 14.9389 15.9135 16.7448 14.8689 17.3413C14.5946 17.4939 14.2791 17.5717 13.9589 17.5655C13.0016 17.5639 11.7859 16.9814 10.5611 15.9433ZM12.2539 12.8169C11.7579 13.5301 11.2127 14.213 10.6217 14.8615C10.7858 15.0217 10.9499 15.1685 11.114 15.3047C12.5388 16.5141 13.8515 16.9659 14.4651 16.6167C14.6525 16.4675 14.8056 16.2851 14.9153 16.0803C15.0251 15.8755 15.0893 15.6524 15.1041 15.4243C15.2288 14.5789 15.1936 13.72 15.0001 12.8858C14.9741 12.7325 14.9423 12.5793 14.8967 12.4175C14.0265 12.6057 13.1436 12.7391 12.2539 12.8169ZM5.01675 13.0897C4.66315 14.9053 4.92199 16.2584 5.53674 16.6081C5.75454 16.6922 5.98969 16.7311 6.22553 16.7218C6.46137 16.7126 6.69212 16.6555 6.90144 16.5547C7.71577 16.2384 8.45739 15.7815 9.08658 15.2086C9.216 15.106 9.33676 14.987 9.46676 14.8679C8.8628 14.2192 8.3032 13.5363 7.79121 12.8233C6.90493 12.7549 6.02481 12.63 5.15715 12.4495C5.10341 12.6722 5.06008 12.8847 5.01675 13.0897ZM10.0434 14.2821C10.4235 13.8645 10.8031 13.4048 11.1833 12.8938C10.8031 12.9109 10.4062 12.9194 10.0087 12.9194C9.6112 12.9194 9.24027 12.9109 8.86876 12.8938C9.25702 13.3957 9.64644 13.8645 10.0434 14.2821ZM8.22917 5.9681C7.90099 6.4364 7.58148 6.92926 7.27931 7.45042C6.97713 7.96143 6.70153 8.48099 6.4502 8.99895C6.70962 9.50996 6.9858 10.0295 7.28797 10.5582C7.59015 11.0692 7.90966 11.5727 8.23783 12.0485C8.80752 12.0827 9.40378 12.1019 10.0081 12.1019C10.6125 12.1019 11.2168 12.0848 11.7958 12.0426C12.1066 11.5743 12.4261 11.0713 12.7289 10.5518C13.0316 10.0322 13.3159 9.50409 13.5666 8.99308C13.3159 8.4906 13.031 7.97104 12.7289 7.45095C12.4267 6.93086 12.1072 6.4364 11.7877 5.96863C11.2099 5.92592 10.6131 5.90029 10.0087 5.90029C9.40436 5.90029 8.8081 5.92538 8.22917 5.9681ZM5.37959 11.6667C5.97212 11.7918 6.57185 11.8857 7.17589 11.9481C6.96847 11.6245 6.76162 11.3004 6.56287 10.9597C6.37278 10.6276 6.18269 10.2954 6.00994 9.96331C5.75977 10.5421 5.55234 11.114 5.37959 11.6667ZM13.454 10.9512C13.2552 11.2918 13.0565 11.6154 12.8583 11.931C13.4714 11.86 14.0797 11.7577 14.6806 11.6245C14.493 11.0495 14.2739 10.4836 14.0242 9.92914C13.8428 10.2698 13.6527 10.6105 13.454 10.9512ZM3.9028 6.77707C2.14117 7.39061 1.07923 8.28396 1.07923 8.98346C1.11281 9.20851 1.19415 9.4252 1.31859 9.62111C1.44302 9.81703 1.60809 9.9883 1.80433 10.1251C2.47835 10.6489 3.25128 11.0532 4.08422 11.3175C4.23964 11.3709 4.40373 11.4115 4.56782 11.4627C4.83309 10.6248 5.15319 9.80258 5.52634 9.00055C5.15247 8.21225 4.83517 7.40206 4.57649 6.57523C4.34345 6.6329 4.11889 6.70018 3.9028 6.77707ZM14.4992 8.98346C14.8824 9.7753 15.2104 10.589 15.4814 11.4195C15.594 11.3853 15.7061 11.3511 15.8095 11.3169C17.7353 10.6868 18.9295 9.72409 18.9359 8.97439C18.9359 8.27594 17.8306 7.37246 16.0256 6.75945C15.8442 6.70018 15.646 6.64038 15.4479 6.58057C15.1862 7.39906 14.8694 8.20159 14.4992 8.98346ZM13.4459 7.0243C13.6446 7.36498 13.8347 7.69765 14.0069 8.02978C14.2468 7.48697 14.4544 6.9324 14.6286 6.36858C14.042 6.23686 13.4481 6.13454 12.8496 6.06208C13.057 6.37659 13.2558 6.69217 13.4459 7.0243ZM5.38826 6.36164C5.56159 6.90683 5.76843 7.46056 6.00994 8.03085C6.18327 7.69872 6.37278 7.36658 6.56287 7.03445C6.75296 6.70232 6.95113 6.37873 7.15855 6.06315C6.53687 6.13844 5.94985 6.24043 5.38826 6.36164ZM11.0447 2.74128C10.8979 2.8689 10.7511 3.00507 10.6038 3.14176C11.2035 3.78226 11.7547 4.46024 12.2534 5.17087C13.1322 5.24928 14.0038 5.38597 14.8614 5.5799C14.8961 5.45228 14.9192 5.32412 14.9481 5.1965C15.3525 3.23735 15.1035 1.73794 14.4472 1.36362C14.3031 1.28889 14.1397 1.25196 13.9745 1.25683C13.2691 1.25362 12.1863 1.76144 11.0447 2.73968V2.74128ZM5.51768 1.38498C4.90466 1.7342 4.66257 3.13108 5.02542 4.97117C5.06875 5.16714 5.11208 5.36257 5.1635 5.56708C6.02229 5.38029 6.89357 5.2465 7.77157 5.1666C8.27205 4.45508 8.82616 3.77703 9.42978 3.13749C9.33502 3.04351 9.23102 2.95861 9.13627 2.87317C7.9345 1.82284 6.77896 1.26858 6.02439 1.26858C5.84705 1.26299 5.67154 1.3033 5.51768 1.38498ZM11.1654 5.09879C10.8093 4.62254 10.425 4.16477 10.0145 3.72754C9.62622 4.14457 9.23738 4.60486 8.85894 5.09879C9.23911 5.0817 9.61871 5.07316 10.0076 5.07316C10.3964 5.07316 10.7852 5.0801 11.1654 5.09879ZM8.28117 9.01764C8.27307 8.7987 8.3118 8.58044 8.39514 8.37537C8.47848 8.17029 8.60479 7.98243 8.76683 7.82256C8.92887 7.66268 9.12346 7.53393 9.33944 7.44368C9.55542 7.35343 9.78855 7.30346 10.0255 7.29663C10.5035 7.31168 10.9555 7.5013 11.2825 7.82392C11.6095 8.14653 11.7847 8.57581 11.7698 9.01764C11.7852 9.45983 11.6101 9.8896 11.2829 10.2126C10.9558 10.5356 10.5033 10.7253 10.0249 10.7402C9.78784 10.7334 9.5546 10.6834 9.33853 10.593C9.12247 10.5027 8.92784 10.3738 8.76582 10.2137C8.6038 10.0537 8.47758 9.86561 8.39441 9.66036C8.31124 9.4551 8.27276 9.23668 8.28117 9.01764Z" fill="#3996DB"/>
</svg>
